<?xml version="1.0" standalone="no"?>
<!DOCTYPE svg PUBLIC "-//W3C//DTD SVG 20010904//EN"
 "http://www.w3.org/TR/2001/REC-SVG-20010904/DTD/svg10.dtd">
<svg version="1.0" xmlns="http://www.w3.org/2000/svg"
 width="800.000000pt" height="800.000000pt" viewBox="0 0 800.000000 800.000000"
 preserveAspectRatio="xMidYMid meet">
<metadata>
Created by potrace 1.11, written by Peter Selinger 2001-2013
</metadata>
<g transform="translate(0.000000,800.000000) scale(0.100000,-0.100000)"
fill="#000000" stroke="none">
<path d="M0 4869 l0 -3130 22 7 c12 3 30 14 40 24 11 10 37 25 58 35 22 10 40
22 40 27 0 4 9 8 19 8 11 0 27 8 37 18 18 17 37 30 159 102 39 23 90 54 115
70 25 16 51 29 58 29 6 1 12 6 12 11 0 6 6 10 14 10 8 0 21 6 28 13 24 24 126
86 132 80 3 -4 6 -2 6 4 0 6 12 16 27 22 34 14 65 32 86 50 9 7 22 9 28 5 7
-4 9 -3 6 4 -4 6 19 26 55 46 35 20 94 56 133 81 38 24 71 42 74 40 2 -2 -2
-86 -9 -187 -10 -142 -10 -196 -1 -239 17 -80 93 -202 196 -312 19 -21 32 -43
29 -49 -4 -7 -2 -8 4 -4 6 3 34 -11 63 -33 65 -49 222 -131 315 -164 127 -45
187 -49 804 -44 l575 4 145 31 c80 17 235 51 345 76 110 25 261 57 335 71 219
41 242 45 300 62 85 23 328 124 619 255 317 143 468 207 661 283 168 66 580
272 757 377 141 85 219 143 386 289 200 174 295 287 393 469 105 193 173 286
322 436 155 156 279 303 331 388 61 101 62 112 59 405 -3 247 -5 269 -24 308
-14 27 -17 43 -10 46 6 2 66 15 134 28 l122 23 0 1528 0 1528 -4000 0 -4000 0
0 -3131z m6028 1582 c133 -22 225 -68 368 -187 159 -131 273 -283 430 -569 95
-175 159 -278 210 -341 19 -23 34 -46 34 -51 0 -14 -83 -23 -210 -23 -58 0
-110 -4 -117 -8 -6 -4 65 -16 158 -26 202 -21 275 -37 343 -74 100 -54 307
-285 377 -422 31 -60 34 -74 37 -175 6 -175 -44 -319 -168 -483 -74 -99 -137
-148 -271 -210 -59 -28 -110 -55 -113 -61 -9 -14 27 -14 77 0 22 6 41 8 43 6
3 -2 -28 -40 -67 -83 -88 -97 -127 -154 -220 -320 -40 -71 -90 -156 -112 -188
-103 -153 -414 -429 -622 -553 -168 -101 -582 -309 -710 -358 -151 -57 -394
-161 -655 -280 -420 -191 -587 -254 -745 -280 -97 -16 -323 -66 -725 -159
-391 -91 -488 -101 -960 -101 -360 0 -378 1 -458 23 -105 29 -164 52 -280 110
-111 55 -236 166 -306 270 -86 131 -94 174 -72 392 25 241 38 697 34 1135 -4
339 -7 411 -23 475 -12 52 -52 141 -131 296 -71 138 -120 246 -129 286 -20 86
-20 306 1 406 21 105 48 146 161 249 250 227 291 284 313 434 28 192 43 234
103 297 91 95 377 260 602 345 183 70 173 69 810 77 547 7 597 9 885 39 439
45 651 56 807 42 439 -39 882 -213 1453 -572 101 -63 140 -77 100 -34 -61 65
-415 283 -635 390 -231 113 -453 188 -685 230 -141 26 -574 32 -782 11 -522
-53 -670 -63 -1033 -72 -158 -4 -259 -2 -275 4 l-25 10 30 12 c110 43 672 85
1405 103 326 9 1679 -1 1748 -12z"/>
<path d="M4265 6214 c-22 -2 -119 -16 -215 -29 -421 -60 -720 -70 -1130 -39
-503 37 -584 36 -653 -13 -43 -30 -60 -63 -34 -63 9 0 44 13 79 30 59 28 71
30 178 30 63 0 189 -7 280 -15 247 -22 655 -30 865 -16 99 7 277 26 395 43
494 72 996 26 1375 -124 214 -85 356 -168 510 -297 113 -94 173 -137 181 -128
21 20 -141 172 -285 269 -131 88 -240 142 -411 206 -200 75 -349 108 -600 132
-116 11 -472 21 -535 14z"/>
<path d="M4317 6010 c-54 -7 -76 -15 -66 -24 2 -2 159 -6 349 -9 380 -6 480
-17 648 -67 210 -62 335 -131 512 -280 47 -39 97 -78 113 -86 24 -13 27 -13
27 1 0 47 -237 242 -379 313 -102 51 -272 107 -387 127 -174 30 -659 45 -817
25z"/>
<path d="M4365 5941 c-95 -59 -145 -151 -152 -280 -6 -99 5 -100 32 -1 22 83
43 123 105 204 58 76 64 108 15 77z"/>
<path d="M2562 5936 c-29 -7 -100 -36 -157 -64 -165 -80 -255 -179 -255 -280
0 -23 4 -42 8 -42 5 0 24 32 43 71 41 85 96 139 201 195 171 91 216 100 443
84 93 -6 229 -21 300 -31 223 -34 225 -34 225 -16 0 29 -124 53 -429 82 -194
18 -306 18 -379 1z"/>
<path d="M3186 5742 c-3 -5 6 -31 19 -58 39 -76 65 -170 65 -235 0 -33 4 -59
10 -59 13 0 13 204 0 251 -19 70 -76 130 -94 101z"/>
<path d="M4784 5569 c-164 -15 -393 -118 -577 -257 -70 -53 -97 -93 -97 -145
0 -72 38 -115 187 -211 l71 -46 159 69 c87 38 201 82 253 99 186 60 416 77
630 47 257 -36 306 -39 351 -26 46 14 109 69 109 95 0 59 -130 196 -239 255
-192 102 -534 151 -847 120z m81 -226 c19 -86 16 -92 -45 -93 -38 0 -136 -33
-295 -97 -140 -57 -158 -59 -196 -25 -28 25 -30 31 -20 51 15 28 120 105 191
141 116 58 304 115 337 103 6 -3 19 -38 28 -80z m758 -63 c26 -16 47 -36 47
-44 0 -12 -7 -12 -50 -1 -62 16 -123 46 -128 63 -8 26 81 14 131 -18z"/>
<path d="M2484 5410 c-102 -9 -194 -50 -259 -114 -50 -51 -55 -71 -24 -110 33
-42 121 -61 404 -86 330 -29 526 -75 598 -138 20 -18 23 -111 6 -192 -14 -66
-37 -87 -200 -188 -74 -46 -184 -124 -244 -174 -105 -87 -189 -138 -228 -138
-45 0 -197 -94 -197 -121 0 -13 22 -6 147 47 56 23 134 53 173 65 l72 22 26
-22 c66 -52 69 -53 105 -40 19 6 45 9 58 6 13 -4 80 -57 149 -118 183 -163
185 -164 295 -164 76 1 99 5 140 25 90 46 109 112 43 149 -25 15 -31 14 -83
-12 -68 -33 -76 -33 -143 -2 -98 46 -252 215 -252 278 0 50 38 94 108 128 80
38 156 108 176 162 9 23 19 93 24 154 10 133 12 136 125 196 73 39 117 76 117
99 0 16 -63 36 -140 43 -98 10 -137 25 -241 90 -178 113 -262 140 -479 155
-157 11 -156 11 -276 0z m164 -147 c-27 -2 -69 -2 -95 0 -27 2 -5 3 47 3 52 0
74 -1 48 -3z"/>
<path d="M6052 5234 c49 -20 86 -40 83 -44 -3 -5 -26 -12 -50 -16 -25 -3 -48
-10 -51 -15 -7 -12 75 -11 136 2 48 10 112 51 99 63 -10 10 -144 35 -224 41
l-80 6 87 -37z"/>
<path d="M1997 5234 c-3 -3 -104 -10 -224 -15 -120 -5 -240 -14 -266 -20 -34
-8 -77 -33 -145 -84 -53 -39 -111 -79 -128 -88 -45 -23 -82 -71 -122 -157 -56
-118 -55 -236 0 -444 26 -96 65 -142 173 -198 77 -40 235 -98 267 -98 44 0 4
28 -129 90 -183 85 -209 102 -237 159 -40 80 -70 208 -70 301 0 147 56 245
192 333 37 24 89 62 115 85 89 77 82 76 379 82 202 4 270 8 280 18 11 11 10
16 -6 28 -20 14 -67 19 -79 8z"/>
<path d="M6610 5200 c14 -4 93 -13 175 -20 248 -19 365 -38 406 -65 50 -33
156 -167 193 -245 l31 -65 0 -185 c-1 -299 -38 -438 -137 -510 -22 -16 -94
-57 -159 -90 -163 -83 -172 -105 -21 -54 176 61 272 134 311 238 38 102 60
393 43 568 -12 126 -41 186 -140 290 -96 101 -144 124 -281 138 -123 12 -458
12 -421 0z"/>
<path d="M5950 5102 c0 -10 73 -52 89 -52 15 0 14 33 -1 48 -13 13 -88 17 -88
4z"/>
<path d="M5072 5064 c-38 -26 -28 -59 40 -131 121 -125 274 -200 438 -212 270
-20 453 21 860 194 62 27 70 27 190 22 88 -4 145 -12 195 -27 62 -20 78 -31
142 -95 54 -56 82 -94 114 -161 56 -116 56 -158 1 -310 -54 -150 -59 -187 -33
-213 12 -12 30 -21 40 -21 50 0 128 125 162 258 51 201 -5 386 -167 549 -136
138 -239 171 -499 160 -169 -8 -207 -17 -400 -95 -324 -130 -456 -154 -620
-112 -92 23 -231 88 -277 129 -90 79 -141 97 -186 65z"/>
<path d="M1510 5011 c-80 -26 -137 -58 -156 -87 -39 -59 -79 -341 -60 -418 17
-67 196 -208 196 -154 0 6 -36 49 -80 94 l-80 82 0 58 c0 73 27 228 45 263 19
37 52 65 115 96 139 69 150 108 20 66z"/>
<path d="M1652 4895 c-141 -31 -235 -133 -174 -188 27 -24 53 -21 148 18 102
43 191 57 276 44 35 -5 66 -9 70 -9 17 0 81 -66 98 -101 36 -69 59 -79 180
-79 128 0 208 14 272 46 102 52 119 165 25 164 -18 -1 -66 -14 -107 -30 -41
-17 -86 -30 -100 -30 -25 0 -70 23 -190 97 -113 69 -139 76 -295 79 -95 3
-160 -1 -203 -11z"/>
<path d="M6476 4799 c-14 -17 -26 -37 -26 -44 0 -20 -81 -88 -152 -126 -295
-159 -673 -299 -1249 -464 -522 -150 -861 -232 -1119 -269 -287 -42 -811 -60
-1010 -35 -338 42 -681 173 -830 319 -66 64 -87 112 -120 275 -31 152 -54 190
-99 165 -20 -10 -32 -36 -56 -122 -8 -32 -28 -73 -44 -90 -38 -45 -55 -81 -75
-161 -36 -145 -49 -285 -49 -562 -1 -382 16 -503 97 -670 78 -163 162 -252
297 -314 282 -131 985 -196 1754 -161 382 17 635 50 920 120 326 79 531 167
796 341 408 268 563 416 873 834 65 88 144 189 175 224 56 64 56 65 56 130 0
72 26 130 68 153 12 7 74 15 138 19 128 7 162 19 157 52 -4 26 -35 43 -172 94
-130 48 -163 80 -201 191 -29 84 -61 132 -89 132 -8 0 -26 -14 -40 -31z m24
-304 c16 -20 0 -106 -34 -181 -38 -82 -99 -134 -244 -207 -166 -84 -369 -170
-382 -162 -13 8 -13 179 0 224 20 69 80 112 310 217 271 124 324 141 350 109z
m-819 -352 c5 -15 7 -38 4 -52 -16 -61 -146 -214 -223 -261 -17 -11 -62 -26
-100 -34 -37 -8 -150 -43 -252 -79 -254 -90 -237 -87 -256 -41 -9 21 -25 80
-37 132 l-22 94 26 22 c23 20 251 88 779 235 57 15 70 13 81 -16z m-3796 -5
c-11 -34 -45 -88 -56 -88 -13 0 -3 32 23 76 23 39 43 46 33 12z m156 -165 c4
-106 -6 -242 -22 -305 -13 -49 -39 -50 -84 -5 -29 29 -33 39 -28 67 6 41 48
160 75 215 39 76 57 85 59 28z m4188 -85 c-51 -73 -181 -238 -253 -320 -87
-99 -118 -115 -149 -77 -16 21 -19 36 -15 104 3 49 11 93 22 113 22 42 93 87
226 145 182 78 202 82 169 35z m-3870 -56 c41 -20 79 -44 85 -54 7 -11 4 -45
-8 -115 -29 -155 -25 -148 -80 -145 -119 8 -159 61 -160 217 -1 72 3 97 17
119 23 34 40 32 146 -22z m2275 9 c14 -27 66 -207 66 -229 0 -21 -58 -46 -184
-77 -170 -43 -329 -65 -460 -65 -138 0 -141 2 -132 125 11 157 -8 148 541 249
165 31 152 31 169 -3z m-1704 -132 c195 -26 209 -37 195 -146 -11 -89 -19 -93
-182 -87 -164 6 -332 29 -351 48 -31 30 18 179 66 202 26 13 76 10 272 -17z
m830 -8 c5 -11 10 -55 10 -99 0 -64 -4 -85 -19 -103 -19 -24 -22 -24 -228 -27
-192 -3 -211 -2 -232 15 l-23 19 17 81 c10 44 20 85 24 91 9 14 221 39 343 41
87 1 98 -1 108 -18z m1878 -73 c7 -7 12 -31 12 -53 0 -56 23 -129 56 -176 25
-37 26 -40 10 -63 -40 -61 -539 -376 -597 -376 -14 0 -33 8 -41 18 -53 60
-137 262 -140 336 -2 65 20 92 90 111 115 33 191 59 367 130 156 63 196 78
226 84 3 0 10 -4 17 -11z m-856 -363 c9 -80 29 -140 70 -207 16 -26 38 -71 48
-100 31 -87 12 -99 -235 -164 -240 -62 -486 -103 -539 -90 -14 3 -30 15 -36
27 -6 11 -15 87 -21 169 -10 163 -3 225 29 251 11 8 87 33 168 53 82 21 214
60 294 86 80 27 161 48 180 47 l35 -2 7 -70z m-2847 -198 c52 -102 68 -157 45
-157 -5 0 -21 22 -34 48 -33 65 -106 242 -106 256 1 22 41 -41 95 -147z m1953
45 c7 -5 17 -35 22 -68 13 -80 14 -302 1 -336 -14 -37 -49 -43 -273 -43 -229
0 -217 -7 -253 150 -35 154 -39 196 -23 218 14 19 23 21 283 47 61 6 136 17
165 25 30 7 57 13 60 14 3 0 11 -3 18 -7z m-1686 -51 c37 -41 159 -259 158
-283 0 -25 -175 14 -263 59 -53 26 -54 43 -2 43 36 0 65 21 65 49 0 9 -6 41
-14 71 -28 114 -28 110 -7 110 10 0 39 -22 63 -49z m342 -24 c86 -14 96 -27
161 -195 35 -91 45 -126 37 -134 -9 -9 -31 -9 -85 0 -113 17 -123 23 -130 73
-3 23 -31 94 -61 156 -31 63 -56 117 -56 120 0 3 15 3 33 -1 17 -4 63 -12 101
-19z m594 -23 c31 -9 48 -45 77 -166 31 -126 32 -164 6 -178 -24 -13 -88 -13
-166 0 -51 8 -65 15 -93 47 -45 51 -134 230 -130 262 2 17 11 27 28 32 32 9
247 11 278 3z"/>
<path d="M4695 4564 c-11 -11 -15 -30 -13 -57 6 -77 40 -87 383 -112 214 -15
254 -11 212 20 -19 14 -50 17 -318 34 -156 10 -228 26 -230 53 -1 7 0 25 1 40
2 33 -14 43 -35 22z"/>
<path d="M4246 4556 c-50 -19 -60 -29 -53 -59 8 -29 35 -42 118 -57 144 -27
179 -47 179 -105 0 -29 -36 -105 -49 -105 -13 0 -51 -63 -51 -84 0 -8 13 -30
29 -48 l29 -32 51 23 c69 33 117 79 130 126 14 50 14 168 1 215 -12 44 -61 93
-115 116 -55 23 -217 29 -269 10z"/>
<path d="M3907 4319 c-52 -12 -117 -47 -124 -66 -4 -10 2 -23 14 -33 17 -14
54 -18 190 -24 158 -6 170 -8 205 -32 30 -22 40 -24 58 -14 30 16 53 75 45
117 -10 53 -46 63 -212 62 -76 -1 -155 -5 -176 -10z"/>
<path d="M5870 2883 c-64 -23 -239 -96 -415 -173 -463 -203 -969 -387 -1197
-434 -100 -21 -238 -32 -608 -51 -743 -37 -1007 -38 -1155 -5 -147 32 -309
106 -420 192 -82 63 -120 88 -135 88 -23 0 -6 -26 58 -89 108 -106 281 -187
487 -228 78 -16 144 -18 500 -17 598 1 1129 36 1350 89 234 56 685 218 1065
382 129 56 409 191 470 226 40 24 40 34 0 20z"/>
<path d="M6211 2859 c-41 -16 -189 -85 -330 -153 -426 -206 -780 -348 -1053
-425 -105 -30 -629 -134 -903 -181 -400 -67 -577 -83 -1112 -101 -403 -13
-613 -8 -693 16 -90 28 -292 134 -402 213 -48 34 -87 97 -89 143 -1 13 -5 35
-9 49 -5 17 -8 -7 -9 -69 l-1 -95 48 -45 c52 -49 252 -167 349 -206 107 -43
177 -48 603 -41 735 11 1048 40 1626 151 508 98 766 168 1097 299 366 145 957
434 957 467 0 11 7 13 -79 -22z"/>
<path d="M3065 2380 c-33 -4 98 -7 290 -7 222 0 319 3 265 8 -103 9 -472 8
-555 -1z"/>
</g>
</svg>
